<mxfile host="Electron" modified="2024-03-11T09:15:38.126Z" agent="Mozilla/5.0 (Windows NT 10.0; Win64; x64) AppleWebKit/537.36 (KHTML, like Gecko) draw.io/23.1.5 Chrome/120.0.6099.109 Electron/28.1.0 Safari/537.36" etag="xUUFmbSef0X501M0wfcu" version="23.1.5" type="device">
  <diagram name="Page-1" id="gNtasHY-tQZWgQRLG3xL">
    <mxGraphModel dx="864" dy="516" grid="1" gridSize="10" guides="1" tooltips="1" connect="1" arrows="1" fold="1" page="1" pageScale="1" pageWidth="1390" pageHeight="980" math="0" shadow="0">
      <root>
        <mxCell id="0" />
        <mxCell id="1" parent="0" />
        <mxCell id="ZAdMR3F9Tmpy0eNwycCo-5" value="" style="edgeStyle=orthogonalEdgeStyle;rounded=0;orthogonalLoop=1;jettySize=auto;html=1;" parent="1" source="ZAdMR3F9Tmpy0eNwycCo-1" target="ZAdMR3F9Tmpy0eNwycCo-3" edge="1">
          <mxGeometry relative="1" as="geometry" />
        </mxCell>
        <mxCell id="ZAdMR3F9Tmpy0eNwycCo-1" value="&lt;font size=&quot;3&quot;&gt;&lt;b&gt;Start&lt;/b&gt;&lt;/font&gt;" style="ellipse;whiteSpace=wrap;html=1;" parent="1" vertex="1">
          <mxGeometry x="420" y="30" width="120" height="80" as="geometry" />
        </mxCell>
        <mxCell id="ZAdMR3F9Tmpy0eNwycCo-2" value="" style="endArrow=classic;html=1;rounded=0;" parent="1" edge="1">
          <mxGeometry width="50" height="50" relative="1" as="geometry">
            <mxPoint x="480" y="110" as="sourcePoint" />
            <mxPoint x="479.5" y="160" as="targetPoint" />
          </mxGeometry>
        </mxCell>
        <mxCell id="ZAdMR3F9Tmpy0eNwycCo-3" value="&lt;b&gt;&lt;font style=&quot;font-size: 14px;&quot;&gt;Input Number 1,&lt;/font&gt;&lt;/b&gt;&lt;div&gt;&lt;b&gt;&lt;font size=&quot;3&quot;&gt;Number 2&lt;/font&gt;&lt;/b&gt;&lt;/div&gt;" style="shape=parallelogram;perimeter=parallelogramPerimeter;whiteSpace=wrap;html=1;fixedSize=1;" parent="1" vertex="1">
          <mxGeometry x="392.5" y="160" width="175" height="50" as="geometry" />
        </mxCell>
        <mxCell id="ZAdMR3F9Tmpy0eNwycCo-6" value="" style="endArrow=classic;html=1;rounded=0;" parent="1" edge="1">
          <mxGeometry width="50" height="50" relative="1" as="geometry">
            <mxPoint x="480" y="310" as="sourcePoint" />
            <mxPoint x="479.5" y="360" as="targetPoint" />
          </mxGeometry>
        </mxCell>
        <mxCell id="ZAdMR3F9Tmpy0eNwycCo-7" value="" style="endArrow=classic;html=1;rounded=0;" parent="1" edge="1">
          <mxGeometry width="50" height="50" relative="1" as="geometry">
            <mxPoint x="480" y="400" as="sourcePoint" />
            <mxPoint x="479.5" y="450" as="targetPoint" />
          </mxGeometry>
        </mxCell>
        <mxCell id="ZAdMR3F9Tmpy0eNwycCo-8" value="" style="endArrow=classic;html=1;rounded=0;" parent="1" edge="1">
          <mxGeometry width="50" height="50" relative="1" as="geometry">
            <mxPoint x="480" y="210" as="sourcePoint" />
            <mxPoint x="479.5" y="260" as="targetPoint" />
          </mxGeometry>
        </mxCell>
        <mxCell id="ZAdMR3F9Tmpy0eNwycCo-9" value="&lt;b&gt;&lt;font style=&quot;font-size: 14px;&quot;&gt;Sum = Number + Number 2&lt;/font&gt;&lt;/b&gt;" style="rounded=0;whiteSpace=wrap;html=1;" parent="1" vertex="1">
          <mxGeometry x="385" y="260" width="190" height="50" as="geometry" />
        </mxCell>
        <mxCell id="ZAdMR3F9Tmpy0eNwycCo-10" value="&lt;b&gt;&lt;font style=&quot;font-size: 14px;&quot;&gt;Print Sum&amp;nbsp;&lt;/font&gt;&lt;/b&gt;" style="shape=parallelogram;perimeter=parallelogramPerimeter;whiteSpace=wrap;html=1;fixedSize=1;" parent="1" vertex="1">
          <mxGeometry x="410" y="360" width="140" height="40" as="geometry" />
        </mxCell>
        <mxCell id="ZAdMR3F9Tmpy0eNwycCo-11" value="&lt;b&gt;&lt;font style=&quot;font-size: 14px;&quot;&gt;End&lt;/font&gt;&lt;/b&gt;" style="ellipse;whiteSpace=wrap;html=1;" parent="1" vertex="1">
          <mxGeometry x="420" y="450" width="120" height="60" as="geometry" />
        </mxCell>
      </root>
    </mxGraphModel>
  </diagram>
</mxfile>
